<svg xmlns="http://www.w3.org/2000/svg" width="80.91" height="90.414" viewBox="0 0 80.91 90.414">
  <g id="Play" transform="translate(89 -5.793) rotate(90)" fill="none">
    <path d="M44.059,12.113a8,8,0,0,1,13.882,0l37.2,64.91A8,8,0,0,1,88.2,89H13.8A8,8,0,0,1,6.864,77.022Z" stroke="none"/>
    <path d="M 50.99999237060547 30.16963958740234 L 25.88372802734375 74 L 76.11626434326172 73.99998474121094 L 50.99999237060547 30.16963958740234 M 50.99999618530273 8.090469360351563 C 53.70222091674805 8.090469360351563 56.40444183349609 9.431297302246094 57.94112777709961 12.11295318603516 L 95.13646697998047 77.02248382568359 C 98.19244384765625 82.35544586181641 94.34159088134766 88.99998474121094 88.19537353515625 88.99998474121094 C 88.19499969482422 88.99998474121094 88.19570922851563 88.99998474121094 88.19533538818359 88.99998474121094 L 13.80465698242188 89.00000762939453 C 7.657783508300781 88.99998474121094 3.807365417480469 82.35577392578125 6.863525390625 77.02248382568359 L 44.05886459350586 12.11295318603516 C 45.59555053710938 9.431297302246094 48.29777145385742 8.090469360351563 50.99999618530273 8.090469360351563 Z" stroke="none" fill="#b1c6b2"/>
  </g>
</svg>
